<mxfile host="app.diagrams.net" agent="Mozilla/5.0 (Windows NT 10.0; Win64; x64) AppleWebKit/537.36 (KHTML, like Gecko) Chrome/128.0.0.0 Safari/537.36 OPR/114.0.0.0" version="26.0.5">
  <diagram name="Page-1" id="aZuvtnex5jukQQ8GUdDq">
    <mxGraphModel dx="556" dy="307" grid="1" gridSize="10" guides="1" tooltips="1" connect="1" arrows="1" fold="1" page="1" pageScale="1" pageWidth="850" pageHeight="1100" math="0" shadow="0">
      <root>
        <mxCell id="0" />
        <mxCell id="1" parent="0" />
        <mxCell id="9VX4RvUI_FH1-eWX6P1F-1" value="between" style="shape=rhombus;perimeter=rhombusPerimeter;whiteSpace=wrap;html=1;align=center;rotation=-15;strokeColor=#82b366;fillColor=#d5e8d4;" parent="1" vertex="1">
          <mxGeometry x="630" y="340" width="100" height="66" as="geometry" />
        </mxCell>
        <mxCell id="9VX4RvUI_FH1-eWX6P1F-2" value="" style="shape=link;html=1;rounded=0;entryX=0;entryY=0;entryDx=0;entryDy=0;exitX=0.5;exitY=1;exitDx=0;exitDy=0;strokeColor=#82b366;fontColor=#00FF00;fillColor=#d5e8d4;" parent="1" source="9VX4RvUI_FH1-eWX6P1F-1" target="9VX4RvUI_FH1-eWX6P1F-12" edge="1">
          <mxGeometry relative="1" as="geometry">
            <mxPoint x="776" y="431" as="sourcePoint" />
            <mxPoint x="830" y="510" as="targetPoint" />
          </mxGeometry>
        </mxCell>
        <mxCell id="9VX4RvUI_FH1-eWX6P1F-3" value="M" style="resizable=0;html=1;whiteSpace=wrap;align=right;verticalAlign=bottom;fontColor=#00FF00;" parent="9VX4RvUI_FH1-eWX6P1F-2" connectable="0" vertex="1">
          <mxGeometry x="1" relative="1" as="geometry">
            <mxPoint y="-20" as="offset" />
          </mxGeometry>
        </mxCell>
        <mxCell id="9VX4RvUI_FH1-eWX6P1F-4" value="" style="endArrow=none;html=1;rounded=0;entryX=0.5;entryY=0;entryDx=0;entryDy=0;exitX=0.5;exitY=1;exitDx=0;exitDy=0;strokeColor=#82b366;fontColor=#00FF00;fillColor=#d5e8d4;" parent="1" source="9VX4RvUI_FH1-eWX6P1F-6" target="9VX4RvUI_FH1-eWX6P1F-1" edge="1">
          <mxGeometry relative="1" as="geometry">
            <mxPoint x="490" y="330" as="sourcePoint" />
            <mxPoint x="650" y="330" as="targetPoint" />
          </mxGeometry>
        </mxCell>
        <mxCell id="9VX4RvUI_FH1-eWX6P1F-5" value="event" style="whiteSpace=wrap;html=1;align=center;fillColor=#b1ddf0;strokeColor=#10739e;" parent="1" vertex="1">
          <mxGeometry x="790" y="700" width="130" height="60" as="geometry" />
        </mxCell>
        <mxCell id="9VX4RvUI_FH1-eWX6P1F-6" value="fighter" style="whiteSpace=wrap;html=1;align=center;fillColor=#b1ddf0;strokeColor=#10739e;" parent="1" vertex="1">
          <mxGeometry x="520" y="210" width="110" height="50" as="geometry" />
        </mxCell>
        <mxCell id="9VX4RvUI_FH1-eWX6P1F-7" value="sponsor" style="whiteSpace=wrap;html=1;align=center;fillColor=#b1ddf0;strokeColor=#10739e;" parent="1" vertex="1">
          <mxGeometry x="1140" y="700" width="90" height="40" as="geometry" />
        </mxCell>
        <mxCell id="9VX4RvUI_FH1-eWX6P1F-8" value="referee" style="whiteSpace=wrap;html=1;align=center;fillColor=#b1ddf0;strokeColor=#10739e;" parent="1" vertex="1">
          <mxGeometry x="1005" y="263" width="110" height="50" as="geometry" />
        </mxCell>
        <mxCell id="9VX4RvUI_FH1-eWX6P1F-9" value="N" style="resizable=0;html=1;whiteSpace=wrap;align=right;verticalAlign=bottom;fontColor=#00FF00;" parent="1" connectable="0" vertex="1">
          <mxGeometry x="680.0037360616677" y="359.9950953494766" as="geometry">
            <mxPoint x="-4" y="-29" as="offset" />
          </mxGeometry>
        </mxCell>
        <mxCell id="9VX4RvUI_FH1-eWX6P1F-10" value="hosted by" style="shape=rhombus;perimeter=rhombusPerimeter;whiteSpace=wrap;html=1;align=center;rotation=0;strokeColor=#82b366;fillColor=#d5e8d4;" parent="1" vertex="1">
          <mxGeometry x="975.0000000000002" y="687" width="100" height="66" as="geometry" />
        </mxCell>
        <mxCell id="9VX4RvUI_FH1-eWX6P1F-11" value="" style="endArrow=none;html=1;rounded=0;entryX=1;entryY=0.5;entryDx=0;entryDy=0;exitX=0;exitY=0.5;exitDx=0;exitDy=0;strokeColor=#82b366;fontColor=#00FF00;fillColor=#d5e8d4;" parent="1" source="9VX4RvUI_FH1-eWX6P1F-7" target="9VX4RvUI_FH1-eWX6P1F-10" edge="1">
          <mxGeometry relative="1" as="geometry">
            <mxPoint x="910" y="320" as="sourcePoint" />
            <mxPoint x="880" y="350" as="targetPoint" />
          </mxGeometry>
        </mxCell>
        <mxCell id="9VX4RvUI_FH1-eWX6P1F-12" value="fight" style="shape=ext;margin=3;double=1;whiteSpace=wrap;html=1;align=center;fillColor=#b1ddf0;strokeColor=#10739e;" parent="1" vertex="1">
          <mxGeometry x="780" y="490" width="120" height="60" as="geometry" />
        </mxCell>
        <mxCell id="9VX4RvUI_FH1-eWX6P1F-13" value="" style="shape=link;html=1;rounded=0;entryX=0.5;entryY=1;entryDx=0;entryDy=0;strokeColor=#82b366;fontColor=#00FF00;fillColor=#d5e8d4;exitX=0.5;exitY=0;exitDx=0;exitDy=0;" parent="1" source="9VX4RvUI_FH1-eWX6P1F-22" target="9VX4RvUI_FH1-eWX6P1F-12" edge="1">
          <mxGeometry relative="1" as="geometry">
            <mxPoint x="840" y="656" as="sourcePoint" />
            <mxPoint x="800" y="710" as="targetPoint" />
          </mxGeometry>
        </mxCell>
        <mxCell id="9VX4RvUI_FH1-eWX6P1F-14" value="N" style="resizable=0;html=1;whiteSpace=wrap;align=right;verticalAlign=bottom;fontColor=#00FF00;" parent="9VX4RvUI_FH1-eWX6P1F-13" connectable="0" vertex="1">
          <mxGeometry x="1" relative="1" as="geometry">
            <mxPoint x="20" y="30" as="offset" />
          </mxGeometry>
        </mxCell>
        <mxCell id="9VX4RvUI_FH1-eWX6P1F-15" value="" style="endArrow=none;html=1;rounded=0;entryX=0.5;entryY=1;entryDx=0;entryDy=0;exitX=0.5;exitY=0;exitDx=0;exitDy=0;strokeColor=#82b366;fontColor=#00FF00;fillColor=#d5e8d4;" parent="1" source="9VX4RvUI_FH1-eWX6P1F-5" target="9VX4RvUI_FH1-eWX6P1F-22" edge="1">
          <mxGeometry relative="1" as="geometry">
            <mxPoint x="640" y="500" as="sourcePoint" />
            <mxPoint x="840" y="590" as="targetPoint" />
            <Array as="points" />
          </mxGeometry>
        </mxCell>
        <mxCell id="9VX4RvUI_FH1-eWX6P1F-16" value="supervised by" style="shape=rhombus;perimeter=rhombusPerimeter;whiteSpace=wrap;html=1;align=center;rotation=-55;strokeColor=#82b366;fillColor=#d5e8d4;" parent="1" vertex="1">
          <mxGeometry x="910" y="349" width="110" height="66" as="geometry" />
        </mxCell>
        <mxCell id="9VX4RvUI_FH1-eWX6P1F-17" value="" style="shape=link;html=1;rounded=0;entryX=0;entryY=0.5;entryDx=0;entryDy=0;strokeColor=#82b366;fontColor=#00FF00;exitX=1;exitY=0;exitDx=0;exitDy=0;fillColor=#d5e8d4;" parent="1" source="9VX4RvUI_FH1-eWX6P1F-12" target="9VX4RvUI_FH1-eWX6P1F-16" edge="1">
          <mxGeometry relative="1" as="geometry">
            <mxPoint x="1060" y="640" as="sourcePoint" />
            <mxPoint x="1150" y="560" as="targetPoint" />
          </mxGeometry>
        </mxCell>
        <mxCell id="9VX4RvUI_FH1-eWX6P1F-18" value="N" style="resizable=0;html=1;whiteSpace=wrap;align=right;verticalAlign=bottom;fontColor=#00FF00;" parent="9VX4RvUI_FH1-eWX6P1F-17" connectable="0" vertex="1">
          <mxGeometry x="1" relative="1" as="geometry">
            <mxPoint x="-17" y="19" as="offset" />
          </mxGeometry>
        </mxCell>
        <mxCell id="9VX4RvUI_FH1-eWX6P1F-19" value="1" style="resizable=0;html=1;whiteSpace=wrap;align=right;verticalAlign=bottom;fontColor=#00FF00;" parent="1" connectable="0" vertex="1">
          <mxGeometry x="1119.9957883452348" y="709.5428419736106" as="geometry" />
        </mxCell>
        <mxCell id="9VX4RvUI_FH1-eWX6P1F-20" value="fight_id" style="ellipse;whiteSpace=wrap;html=1;align=center;fontStyle=4;fillColor=#d0cee2;strokeColor=#56517e;" parent="1" vertex="1">
          <mxGeometry x="740" y="400" width="100" height="40" as="geometry" />
        </mxCell>
        <mxCell id="9VX4RvUI_FH1-eWX6P1F-21" value="date" style="ellipse;whiteSpace=wrap;html=1;align=center;fillColor=#d0cee2;strokeColor=#56517e;" parent="1" vertex="1">
          <mxGeometry x="660" y="570" width="100" height="40" as="geometry" />
        </mxCell>
        <mxCell id="9VX4RvUI_FH1-eWX6P1F-22" value="belongs to" style="shape=rhombus;double=1;perimeter=rhombusPerimeter;whiteSpace=wrap;html=1;align=center;fillColor=#d5e8d4;strokeColor=#82b366;" parent="1" vertex="1">
          <mxGeometry x="790" y="590" width="100" height="60" as="geometry" />
        </mxCell>
        <mxCell id="9VX4RvUI_FH1-eWX6P1F-23" value="1" style="resizable=0;html=1;whiteSpace=wrap;align=right;verticalAlign=bottom;fontColor=#00FF00;" parent="1" connectable="0" vertex="1">
          <mxGeometry x="859.9957883452348" y="680.0028419736107" as="geometry" />
        </mxCell>
        <mxCell id="9VX4RvUI_FH1-eWX6P1F-24" value="" style="endArrow=none;html=1;rounded=0;entryX=0;entryY=0.5;entryDx=0;entryDy=0;exitX=1;exitY=0.5;exitDx=0;exitDy=0;strokeColor=#82b366;fontColor=#00FF00;fillColor=#d5e8d4;" parent="1" source="9VX4RvUI_FH1-eWX6P1F-111" target="9VX4RvUI_FH1-eWX6P1F-12" edge="1">
          <mxGeometry relative="1" as="geometry">
            <mxPoint x="700" y="527" as="sourcePoint" />
            <mxPoint x="731" y="381" as="targetPoint" />
          </mxGeometry>
        </mxCell>
        <mxCell id="9VX4RvUI_FH1-eWX6P1F-25" value="takes place in" style="shape=rhombus;perimeter=rhombusPerimeter;whiteSpace=wrap;html=1;align=center;rotation=-15;strokeColor=#82b366;fillColor=#d5e8d4;" parent="1" vertex="1">
          <mxGeometry x="655" y="700" width="110" height="66" as="geometry" />
        </mxCell>
        <mxCell id="9VX4RvUI_FH1-eWX6P1F-26" value="" style="endArrow=none;html=1;rounded=0;entryX=0.75;entryY=0;entryDx=0;entryDy=0;exitX=0;exitY=0.5;exitDx=0;exitDy=0;strokeColor=#82b366;fontColor=#00FF00;fillColor=#d5e8d4;" parent="1" source="9VX4RvUI_FH1-eWX6P1F-25" target="9VX4RvUI_FH1-eWX6P1F-85" edge="1">
          <mxGeometry relative="1" as="geometry">
            <mxPoint x="710" y="537" as="sourcePoint" />
            <mxPoint x="640" y="760" as="targetPoint" />
          </mxGeometry>
        </mxCell>
        <mxCell id="9VX4RvUI_FH1-eWX6P1F-27" value="" style="shape=link;html=1;rounded=0;entryX=0;entryY=0.5;entryDx=0;entryDy=0;strokeColor=#82b366;fontColor=#00FF00;fillColor=#d5e8d4;exitX=1;exitY=0.5;exitDx=0;exitDy=0;" parent="1" source="9VX4RvUI_FH1-eWX6P1F-121" target="9VX4RvUI_FH1-eWX6P1F-111" edge="1">
          <mxGeometry relative="1" as="geometry">
            <mxPoint x="520" y="515" as="sourcePoint" />
            <mxPoint x="600" y="527" as="targetPoint" />
          </mxGeometry>
        </mxCell>
        <mxCell id="9VX4RvUI_FH1-eWX6P1F-28" value="1" style="resizable=0;html=1;whiteSpace=wrap;align=right;verticalAlign=bottom;fontColor=#00FF00;" parent="9VX4RvUI_FH1-eWX6P1F-27" connectable="0" vertex="1">
          <mxGeometry x="1" relative="1" as="geometry">
            <mxPoint x="-20" y="-7" as="offset" />
          </mxGeometry>
        </mxCell>
        <mxCell id="9VX4RvUI_FH1-eWX6P1F-29" value="1" style="resizable=0;html=1;whiteSpace=wrap;align=right;verticalAlign=bottom;fontColor=#00FF00;" parent="1" connectable="0" vertex="1">
          <mxGeometry x="750.0015564671502" y="527.0023618656936" as="geometry" />
        </mxCell>
        <mxCell id="9VX4RvUI_FH1-eWX6P1F-30" value="" style="shape=link;html=1;rounded=0;entryX=1;entryY=0.5;entryDx=0;entryDy=0;strokeColor=#82b366;fontColor=#00FF00;exitX=0;exitY=0.5;exitDx=0;exitDy=0;fillColor=#d5e8d4;" parent="1" source="9VX4RvUI_FH1-eWX6P1F-5" target="9VX4RvUI_FH1-eWX6P1F-25" edge="1">
          <mxGeometry relative="1" as="geometry">
            <mxPoint x="900" y="550" as="sourcePoint" />
            <mxPoint x="980" y="553" as="targetPoint" />
          </mxGeometry>
        </mxCell>
        <mxCell id="9VX4RvUI_FH1-eWX6P1F-31" value="N" style="resizable=0;html=1;whiteSpace=wrap;align=right;verticalAlign=bottom;fontColor=#00FF00;" parent="9VX4RvUI_FH1-eWX6P1F-30" connectable="0" vertex="1">
          <mxGeometry x="1" relative="1" as="geometry">
            <mxPoint x="22" y="1" as="offset" />
          </mxGeometry>
        </mxCell>
        <mxCell id="9VX4RvUI_FH1-eWX6P1F-32" value="card_id" style="ellipse;whiteSpace=wrap;html=1;align=center;fontStyle=4;fillColor=#d0cee2;strokeColor=#56517e;" parent="1" vertex="1">
          <mxGeometry x="720" y="790" width="100" height="40" as="geometry" />
        </mxCell>
        <mxCell id="9VX4RvUI_FH1-eWX6P1F-33" value="&lt;div&gt;&lt;span style=&quot;background-color: transparent; color: light-dark(rgb(0, 0, 0), rgb(255, 255, 255));&quot;&gt;fighter_ id&lt;/span&gt;&lt;br&gt;&lt;/div&gt;" style="ellipse;whiteSpace=wrap;html=1;align=center;fontStyle=4;fillColor=#d0cee2;strokeColor=#56517e;" parent="1" vertex="1">
          <mxGeometry x="395" y="200" width="90" height="40" as="geometry" />
        </mxCell>
        <mxCell id="9VX4RvUI_FH1-eWX6P1F-34" value="sponsor_id" style="ellipse;whiteSpace=wrap;html=1;align=center;fontStyle=4;fillColor=#d0cee2;strokeColor=#56517e;" parent="1" vertex="1">
          <mxGeometry x="1060" y="780" width="100" height="40" as="geometry" />
        </mxCell>
        <mxCell id="9VX4RvUI_FH1-eWX6P1F-35" value="1" style="resizable=0;html=1;whiteSpace=wrap;align=right;verticalAlign=bottom;fontColor=#00FF00;" parent="1" connectable="0" vertex="1">
          <mxGeometry x="650.0015564671501" y="749.5423618656936" as="geometry" />
        </mxCell>
        <mxCell id="9VX4RvUI_FH1-eWX6P1F-36" value="ref_id" style="ellipse;whiteSpace=wrap;html=1;align=center;fontStyle=4;fillColor=#d0cee2;strokeColor=#56517e;" parent="1" vertex="1">
          <mxGeometry x="1045" y="353" width="100" height="40" as="geometry" />
        </mxCell>
        <mxCell id="9VX4RvUI_FH1-eWX6P1F-37" value="last&lt;span style=&quot;background-color: transparent; color: light-dark(rgb(0, 0, 0), rgb(255, 255, 255));&quot;&gt;_name&lt;/span&gt;" style="ellipse;whiteSpace=wrap;html=1;align=center;fillColor=#d0cee2;strokeColor=#56517e;" parent="1" vertex="1">
          <mxGeometry x="1090" y="185" width="100" height="40" as="geometry" />
        </mxCell>
        <mxCell id="9VX4RvUI_FH1-eWX6P1F-38" value="area_m2" style="ellipse;whiteSpace=wrap;html=1;align=center;fillColor=#d0cee2;strokeColor=#56517e;" parent="1" vertex="1">
          <mxGeometry x="480" y="870" width="100" height="40" as="geometry" />
        </mxCell>
        <mxCell id="9VX4RvUI_FH1-eWX6P1F-39" value="sponsor_name" style="ellipse;whiteSpace=wrap;html=1;align=center;fillColor=#d0cee2;strokeColor=#56517e;" parent="1" vertex="1">
          <mxGeometry x="1300" y="709.54" width="100" height="40" as="geometry" />
        </mxCell>
        <mxCell id="9VX4RvUI_FH1-eWX6P1F-40" value="first_name" style="ellipse;whiteSpace=wrap;html=1;align=center;fillColor=#d0cee2;strokeColor=#56517e;" parent="1" vertex="1">
          <mxGeometry x="480" y="110" width="90" height="35" as="geometry" />
        </mxCell>
        <mxCell id="9VX4RvUI_FH1-eWX6P1F-41" value="sponsored_amount" style="ellipse;whiteSpace=wrap;html=1;align=center;fillColor=#d0cee2;strokeColor=#56517e;" parent="1" vertex="1">
          <mxGeometry x="955" y="580" width="120" height="40" as="geometry" />
        </mxCell>
        <mxCell id="9VX4RvUI_FH1-eWX6P1F-42" value="total_amnt_spnsred" style="ellipse;whiteSpace=wrap;html=1;align=center;dashed=1;fillColor=#d0cee2;strokeColor=#56517e;" parent="1" vertex="1">
          <mxGeometry x="1260" y="780" width="120" height="40" as="geometry" />
        </mxCell>
        <mxCell id="9VX4RvUI_FH1-eWX6P1F-43" value="blue_by_knockout" style="ellipse;whiteSpace=wrap;html=1;align=center;fillColor=#d0cee2;strokeColor=#56517e;" parent="1" vertex="1">
          <mxGeometry x="320" y="420" width="120" height="40" as="geometry" />
        </mxCell>
        <mxCell id="9VX4RvUI_FH1-eWX6P1F-44" value="red_by_knockout" style="ellipse;whiteSpace=wrap;html=1;align=center;fillColor=#d0cee2;strokeColor=#56517e;" parent="1" vertex="1">
          <mxGeometry x="250" y="470" width="120" height="40" as="geometry" />
        </mxCell>
        <mxCell id="9VX4RvUI_FH1-eWX6P1F-45" value="red_win" style="ellipse;whiteSpace=wrap;html=1;align=center;fillColor=#d0cee2;strokeColor=#56517e;" parent="1" vertex="1">
          <mxGeometry x="250" y="523" width="90" height="37" as="geometry" />
        </mxCell>
        <mxCell id="9VX4RvUI_FH1-eWX6P1F-46" value="blue_win" style="ellipse;whiteSpace=wrap;html=1;align=center;fillColor=#d0cee2;strokeColor=#56517e;" parent="1" vertex="1">
          <mxGeometry x="290" y="580" width="120" height="40" as="geometry" />
        </mxCell>
        <mxCell id="9VX4RvUI_FH1-eWX6P1F-47" value="nationality" style="ellipse;whiteSpace=wrap;html=1;align=center;fillColor=#d0cee2;strokeColor=#56517e;" parent="1" vertex="1">
          <mxGeometry x="400" y="300" width="80" height="40" as="geometry" />
        </mxCell>
        <mxCell id="9VX4RvUI_FH1-eWX6P1F-48" value="" style="endArrow=none;html=1;rounded=0;entryX=0;entryY=0;entryDx=0;entryDy=0;exitX=1;exitY=1;exitDx=0;exitDy=0;" parent="1" source="9VX4RvUI_FH1-eWX6P1F-12" target="9VX4RvUI_FH1-eWX6P1F-41" edge="1">
          <mxGeometry width="50" height="50" relative="1" as="geometry">
            <mxPoint x="880" y="580" as="sourcePoint" />
            <mxPoint x="930" y="530" as="targetPoint" />
          </mxGeometry>
        </mxCell>
        <mxCell id="9VX4RvUI_FH1-eWX6P1F-49" value="" style="endArrow=none;html=1;rounded=0;entryX=0.5;entryY=1;entryDx=0;entryDy=0;exitX=0.5;exitY=0;exitDx=0;exitDy=0;" parent="1" source="9VX4RvUI_FH1-eWX6P1F-12" target="9VX4RvUI_FH1-eWX6P1F-20" edge="1">
          <mxGeometry width="50" height="50" relative="1" as="geometry">
            <mxPoint x="880" y="580" as="sourcePoint" />
            <mxPoint x="930" y="530" as="targetPoint" />
          </mxGeometry>
        </mxCell>
        <mxCell id="9VX4RvUI_FH1-eWX6P1F-50" value="" style="endArrow=none;html=1;rounded=0;exitX=1;exitY=0;exitDx=0;exitDy=0;entryX=0;entryY=1;entryDx=0;entryDy=0;" parent="1" source="9VX4RvUI_FH1-eWX6P1F-21" target="9VX4RvUI_FH1-eWX6P1F-12" edge="1">
          <mxGeometry width="50" height="50" relative="1" as="geometry">
            <mxPoint x="880" y="580" as="sourcePoint" />
            <mxPoint x="930" y="530" as="targetPoint" />
          </mxGeometry>
        </mxCell>
        <mxCell id="9VX4RvUI_FH1-eWX6P1F-51" value="" style="endArrow=none;html=1;rounded=0;exitX=1;exitY=1;exitDx=0;exitDy=0;entryX=0;entryY=0.25;entryDx=0;entryDy=0;" parent="1" source="9VX4RvUI_FH1-eWX6P1F-113" target="9VX4RvUI_FH1-eWX6P1F-85" edge="1">
          <mxGeometry width="50" height="50" relative="1" as="geometry">
            <mxPoint x="490" y="740" as="sourcePoint" />
            <mxPoint x="600" y="760" as="targetPoint" />
          </mxGeometry>
        </mxCell>
        <mxCell id="9VX4RvUI_FH1-eWX6P1F-52" value="" style="endArrow=none;html=1;rounded=0;exitX=0.5;exitY=0;exitDx=0;exitDy=0;entryX=0.25;entryY=1;entryDx=0;entryDy=0;" parent="1" source="9VX4RvUI_FH1-eWX6P1F-38" target="9VX4RvUI_FH1-eWX6P1F-85" edge="1">
          <mxGeometry width="50" height="50" relative="1" as="geometry">
            <mxPoint x="880" y="780" as="sourcePoint" />
            <mxPoint x="600" y="800" as="targetPoint" />
          </mxGeometry>
        </mxCell>
        <mxCell id="9VX4RvUI_FH1-eWX6P1F-53" value="" style="endArrow=none;html=1;rounded=0;exitX=0.5;exitY=0;exitDx=0;exitDy=0;entryX=0;entryY=1;entryDx=0;entryDy=0;" parent="1" source="9VX4RvUI_FH1-eWX6P1F-32" target="9VX4RvUI_FH1-eWX6P1F-5" edge="1">
          <mxGeometry width="50" height="50" relative="1" as="geometry">
            <mxPoint x="880" y="780" as="sourcePoint" />
            <mxPoint x="930" y="730" as="targetPoint" />
          </mxGeometry>
        </mxCell>
        <mxCell id="9VX4RvUI_FH1-eWX6P1F-54" value="" style="endArrow=none;html=1;rounded=0;exitX=0;exitY=0;exitDx=0;exitDy=0;entryX=1;entryY=1;entryDx=0;entryDy=0;" parent="1" source="9VX4RvUI_FH1-eWX6P1F-42" target="9VX4RvUI_FH1-eWX6P1F-7" edge="1">
          <mxGeometry width="50" height="50" relative="1" as="geometry">
            <mxPoint x="880" y="780" as="sourcePoint" />
            <mxPoint x="930" y="730" as="targetPoint" />
          </mxGeometry>
        </mxCell>
        <mxCell id="9VX4RvUI_FH1-eWX6P1F-55" value="" style="endArrow=none;html=1;rounded=0;exitX=0.5;exitY=0;exitDx=0;exitDy=0;entryX=0.25;entryY=1;entryDx=0;entryDy=0;" parent="1" source="9VX4RvUI_FH1-eWX6P1F-34" target="9VX4RvUI_FH1-eWX6P1F-7" edge="1">
          <mxGeometry width="50" height="50" relative="1" as="geometry">
            <mxPoint x="880" y="780" as="sourcePoint" />
            <mxPoint x="930" y="730" as="targetPoint" />
          </mxGeometry>
        </mxCell>
        <mxCell id="9VX4RvUI_FH1-eWX6P1F-56" value="" style="endArrow=none;html=1;rounded=0;exitX=0;exitY=0.5;exitDx=0;exitDy=0;entryX=1;entryY=0.5;entryDx=0;entryDy=0;" parent="1" source="9VX4RvUI_FH1-eWX6P1F-39" target="9VX4RvUI_FH1-eWX6P1F-7" edge="1">
          <mxGeometry width="50" height="50" relative="1" as="geometry">
            <mxPoint x="880" y="780" as="sourcePoint" />
            <mxPoint x="930" y="730" as="targetPoint" />
          </mxGeometry>
        </mxCell>
        <mxCell id="9VX4RvUI_FH1-eWX6P1F-57" value="" style="endArrow=none;html=1;rounded=0;entryX=0;entryY=1;entryDx=0;entryDy=0;exitX=0.5;exitY=0;exitDx=0;exitDy=0;" parent="1" source="9VX4RvUI_FH1-eWX6P1F-8" target="9VX4RvUI_FH1-eWX6P1F-37" edge="1">
          <mxGeometry width="50" height="50" relative="1" as="geometry">
            <mxPoint x="880" y="780" as="sourcePoint" />
            <mxPoint x="930" y="730" as="targetPoint" />
          </mxGeometry>
        </mxCell>
        <mxCell id="9VX4RvUI_FH1-eWX6P1F-58" value="" style="endArrow=none;html=1;rounded=0;entryX=0.5;entryY=0;entryDx=0;entryDy=0;exitX=0.75;exitY=1;exitDx=0;exitDy=0;" parent="1" source="9VX4RvUI_FH1-eWX6P1F-8" target="9VX4RvUI_FH1-eWX6P1F-36" edge="1">
          <mxGeometry width="50" height="50" relative="1" as="geometry">
            <mxPoint x="880" y="780" as="sourcePoint" />
            <mxPoint x="930" y="730" as="targetPoint" />
          </mxGeometry>
        </mxCell>
        <mxCell id="9VX4RvUI_FH1-eWX6P1F-59" value="" style="endArrow=none;html=1;rounded=0;entryX=1;entryY=0;entryDx=0;entryDy=0;exitX=0;exitY=1;exitDx=0;exitDy=0;" parent="1" source="9VX4RvUI_FH1-eWX6P1F-6" target="9VX4RvUI_FH1-eWX6P1F-47" edge="1">
          <mxGeometry width="50" height="50" relative="1" as="geometry">
            <mxPoint x="880" y="380" as="sourcePoint" />
            <mxPoint x="930" y="330" as="targetPoint" />
          </mxGeometry>
        </mxCell>
        <mxCell id="9VX4RvUI_FH1-eWX6P1F-60" value="" style="endArrow=none;html=1;rounded=0;entryX=1;entryY=0.5;entryDx=0;entryDy=0;exitX=0;exitY=0.25;exitDx=0;exitDy=0;" parent="1" source="9VX4RvUI_FH1-eWX6P1F-6" target="9VX4RvUI_FH1-eWX6P1F-33" edge="1">
          <mxGeometry width="50" height="50" relative="1" as="geometry">
            <mxPoint x="880" y="380" as="sourcePoint" />
            <mxPoint x="930" y="330" as="targetPoint" />
          </mxGeometry>
        </mxCell>
        <mxCell id="9VX4RvUI_FH1-eWX6P1F-61" value="" style="endArrow=none;html=1;rounded=0;entryX=1;entryY=1;entryDx=0;entryDy=0;exitX=0.5;exitY=0;exitDx=0;exitDy=0;" parent="1" source="9VX4RvUI_FH1-eWX6P1F-6" target="9VX4RvUI_FH1-eWX6P1F-40" edge="1">
          <mxGeometry width="50" height="50" relative="1" as="geometry">
            <mxPoint x="880" y="380" as="sourcePoint" />
            <mxPoint x="930" y="330" as="targetPoint" />
          </mxGeometry>
        </mxCell>
        <mxCell id="9VX4RvUI_FH1-eWX6P1F-62" value="" style="endArrow=none;html=1;rounded=0;exitX=1;exitY=1;exitDx=0;exitDy=0;entryX=0.25;entryY=0;entryDx=0;entryDy=0;" parent="1" source="9VX4RvUI_FH1-eWX6P1F-43" target="9VX4RvUI_FH1-eWX6P1F-121" edge="1">
          <mxGeometry width="50" height="50" relative="1" as="geometry">
            <mxPoint x="450" y="580" as="sourcePoint" />
            <mxPoint x="437.5" y="490" as="targetPoint" />
          </mxGeometry>
        </mxCell>
        <mxCell id="9VX4RvUI_FH1-eWX6P1F-63" value="" style="endArrow=none;html=1;rounded=0;exitX=1;exitY=0.5;exitDx=0;exitDy=0;entryX=0;entryY=0.25;entryDx=0;entryDy=0;" parent="1" source="9VX4RvUI_FH1-eWX6P1F-44" target="9VX4RvUI_FH1-eWX6P1F-121" edge="1">
          <mxGeometry width="50" height="50" relative="1" as="geometry">
            <mxPoint x="450" y="580" as="sourcePoint" />
            <mxPoint x="410" y="502.5" as="targetPoint" />
          </mxGeometry>
        </mxCell>
        <mxCell id="9VX4RvUI_FH1-eWX6P1F-64" value="" style="endArrow=none;html=1;rounded=0;exitX=1;exitY=0.5;exitDx=0;exitDy=0;entryX=0;entryY=0.75;entryDx=0;entryDy=0;" parent="1" source="9VX4RvUI_FH1-eWX6P1F-45" target="9VX4RvUI_FH1-eWX6P1F-121" edge="1">
          <mxGeometry width="50" height="50" relative="1" as="geometry">
            <mxPoint x="450" y="580" as="sourcePoint" />
            <mxPoint x="410" y="527.5" as="targetPoint" />
          </mxGeometry>
        </mxCell>
        <mxCell id="9VX4RvUI_FH1-eWX6P1F-65" value="" style="endArrow=none;html=1;rounded=0;exitX=1;exitY=0;exitDx=0;exitDy=0;entryX=0.25;entryY=1;entryDx=0;entryDy=0;" parent="1" source="9VX4RvUI_FH1-eWX6P1F-46" target="9VX4RvUI_FH1-eWX6P1F-121" edge="1">
          <mxGeometry width="50" height="50" relative="1" as="geometry">
            <mxPoint x="450" y="580" as="sourcePoint" />
            <mxPoint x="437.5" y="540" as="targetPoint" />
          </mxGeometry>
        </mxCell>
        <mxCell id="9VX4RvUI_FH1-eWX6P1F-66" value="title_bout" style="ellipse;whiteSpace=wrap;html=1;align=center;fillColor=#d0cee2;strokeColor=#56517e;" parent="1" vertex="1">
          <mxGeometry x="980" y="523" width="100" height="40" as="geometry" />
        </mxCell>
        <mxCell id="9VX4RvUI_FH1-eWX6P1F-67" value="weight_class" style="ellipse;whiteSpace=wrap;html=1;align=center;fillColor=#d0cee2;strokeColor=#56517e;" parent="1" vertex="1">
          <mxGeometry x="890" y="620" width="100" height="40" as="geometry" />
        </mxCell>
        <mxCell id="9VX4RvUI_FH1-eWX6P1F-68" value="" style="endArrow=none;html=1;rounded=0;entryX=0.5;entryY=0;entryDx=0;entryDy=0;exitX=0.75;exitY=1;exitDx=0;exitDy=0;" parent="1" source="9VX4RvUI_FH1-eWX6P1F-12" target="9VX4RvUI_FH1-eWX6P1F-67" edge="1">
          <mxGeometry width="50" height="50" relative="1" as="geometry">
            <mxPoint x="740" y="540" as="sourcePoint" />
            <mxPoint x="790" y="490" as="targetPoint" />
          </mxGeometry>
        </mxCell>
        <mxCell id="9VX4RvUI_FH1-eWX6P1F-69" value="" style="endArrow=none;html=1;rounded=0;entryX=0;entryY=1;entryDx=0;entryDy=0;exitX=1;exitY=0.5;exitDx=0;exitDy=0;" parent="1" source="9VX4RvUI_FH1-eWX6P1F-12" target="9VX4RvUI_FH1-eWX6P1F-66" edge="1">
          <mxGeometry width="50" height="50" relative="1" as="geometry">
            <mxPoint x="740" y="540" as="sourcePoint" />
            <mxPoint x="790" y="490" as="targetPoint" />
          </mxGeometry>
        </mxCell>
        <mxCell id="9VX4RvUI_FH1-eWX6P1F-70" value="height" style="ellipse;whiteSpace=wrap;html=1;align=center;fillColor=#d0cee2;strokeColor=#56517e;" parent="1" vertex="1">
          <mxGeometry x="420" y="160" width="70" height="30" as="geometry" />
        </mxCell>
        <mxCell id="9VX4RvUI_FH1-eWX6P1F-71" value="date_of_birth" style="ellipse;whiteSpace=wrap;html=1;align=center;fillColor=#d0cee2;strokeColor=#56517e;" parent="1" vertex="1">
          <mxGeometry x="505" y="305" width="100" height="40" as="geometry" />
        </mxCell>
        <mxCell id="9VX4RvUI_FH1-eWX6P1F-72" value="weight" style="ellipse;whiteSpace=wrap;html=1;align=center;fillColor=#d0cee2;strokeColor=#56517e;rotation=0;" parent="1" vertex="1">
          <mxGeometry x="495" y="160" width="55" height="30" as="geometry" />
        </mxCell>
        <mxCell id="9VX4RvUI_FH1-eWX6P1F-73" value="reach" style="ellipse;whiteSpace=wrap;html=1;align=center;fillColor=#d0cee2;strokeColor=#56517e;" parent="1" vertex="1">
          <mxGeometry x="620" y="155" width="70" height="30" as="geometry" />
        </mxCell>
        <mxCell id="9VX4RvUI_FH1-eWX6P1F-74" value="stance" style="ellipse;whiteSpace=wrap;html=1;align=center;fillColor=#d0cee2;strokeColor=#56517e;" parent="1" vertex="1">
          <mxGeometry x="410" y="250" width="70" height="40" as="geometry" />
        </mxCell>
        <mxCell id="9VX4RvUI_FH1-eWX6P1F-75" value="" style="endArrow=none;html=1;rounded=0;entryX=0.5;entryY=1;entryDx=0;entryDy=0;exitX=0.25;exitY=0;exitDx=0;exitDy=0;" parent="1" source="9VX4RvUI_FH1-eWX6P1F-6" target="9VX4RvUI_FH1-eWX6P1F-72" edge="1">
          <mxGeometry width="50" height="50" relative="1" as="geometry">
            <mxPoint x="440" y="340" as="sourcePoint" />
            <mxPoint x="490" y="290" as="targetPoint" />
          </mxGeometry>
        </mxCell>
        <mxCell id="9VX4RvUI_FH1-eWX6P1F-76" value="" style="endArrow=none;html=1;rounded=0;entryX=0;entryY=0;entryDx=0;entryDy=0;exitX=1;exitY=1;exitDx=0;exitDy=0;" parent="1" source="9VX4RvUI_FH1-eWX6P1F-70" target="9VX4RvUI_FH1-eWX6P1F-6" edge="1">
          <mxGeometry width="50" height="50" relative="1" as="geometry">
            <mxPoint x="440" y="340" as="sourcePoint" />
            <mxPoint x="490" y="290" as="targetPoint" />
          </mxGeometry>
        </mxCell>
        <mxCell id="9VX4RvUI_FH1-eWX6P1F-77" value="" style="endArrow=none;html=1;rounded=0;entryX=0.5;entryY=0;entryDx=0;entryDy=0;exitX=0.25;exitY=1;exitDx=0;exitDy=0;" parent="1" source="9VX4RvUI_FH1-eWX6P1F-6" target="9VX4RvUI_FH1-eWX6P1F-71" edge="1">
          <mxGeometry width="50" height="50" relative="1" as="geometry">
            <mxPoint x="440" y="340" as="sourcePoint" />
            <mxPoint x="490" y="290" as="targetPoint" />
          </mxGeometry>
        </mxCell>
        <mxCell id="9VX4RvUI_FH1-eWX6P1F-78" value="" style="endArrow=none;html=1;rounded=0;entryX=0;entryY=1;entryDx=0;entryDy=0;exitX=0.75;exitY=0;exitDx=0;exitDy=0;" parent="1" source="9VX4RvUI_FH1-eWX6P1F-6" target="9VX4RvUI_FH1-eWX6P1F-73" edge="1">
          <mxGeometry width="50" height="50" relative="1" as="geometry">
            <mxPoint x="633" y="220" as="sourcePoint" />
            <mxPoint x="490" y="290" as="targetPoint" />
          </mxGeometry>
        </mxCell>
        <mxCell id="9VX4RvUI_FH1-eWX6P1F-79" value="" style="endArrow=none;html=1;rounded=0;entryX=1;entryY=0;entryDx=0;entryDy=0;exitX=0;exitY=0.5;exitDx=0;exitDy=0;" parent="1" source="9VX4RvUI_FH1-eWX6P1F-6" target="9VX4RvUI_FH1-eWX6P1F-74" edge="1">
          <mxGeometry width="50" height="50" relative="1" as="geometry">
            <mxPoint x="570" y="400" as="sourcePoint" />
            <mxPoint x="620" y="350" as="targetPoint" />
          </mxGeometry>
        </mxCell>
        <mxCell id="9VX4RvUI_FH1-eWX6P1F-80" value="" style="endArrow=none;html=1;rounded=0;entryX=0.5;entryY=0;entryDx=0;entryDy=0;exitX=0.75;exitY=1;exitDx=0;exitDy=0;" parent="1" source="9VX4RvUI_FH1-eWX6P1F-85" target="9VX4RvUI_FH1-eWX6P1F-120" edge="1">
          <mxGeometry width="50" height="50" relative="1" as="geometry">
            <mxPoint x="640" y="800" as="sourcePoint" />
            <mxPoint x="670" y="840" as="targetPoint" />
          </mxGeometry>
        </mxCell>
        <mxCell id="9VX4RvUI_FH1-eWX6P1F-81" value="blue_by_sub" style="ellipse;whiteSpace=wrap;html=1;align=center;fillColor=#d0cee2;strokeColor=#56517e;" parent="1" vertex="1">
          <mxGeometry x="440" y="400" width="120" height="40" as="geometry" />
        </mxCell>
        <mxCell id="9VX4RvUI_FH1-eWX6P1F-82" value="red_by_sub" style="ellipse;whiteSpace=wrap;html=1;align=center;fillColor=#d0cee2;strokeColor=#56517e;" parent="1" vertex="1">
          <mxGeometry x="410" y="600" width="120" height="40" as="geometry" />
        </mxCell>
        <mxCell id="9VX4RvUI_FH1-eWX6P1F-83" value="" style="endArrow=none;html=1;rounded=0;entryX=0.5;entryY=0;entryDx=0;entryDy=0;exitX=0.5;exitY=1;exitDx=0;exitDy=0;" parent="1" source="9VX4RvUI_FH1-eWX6P1F-121" target="9VX4RvUI_FH1-eWX6P1F-82" edge="1">
          <mxGeometry width="50" height="50" relative="1" as="geometry">
            <mxPoint x="465" y="540" as="sourcePoint" />
            <mxPoint x="600" y="450" as="targetPoint" />
          </mxGeometry>
        </mxCell>
        <mxCell id="9VX4RvUI_FH1-eWX6P1F-84" value="" style="endArrow=none;html=1;rounded=0;exitX=0.437;exitY=1;exitDx=0;exitDy=0;exitPerimeter=0;entryX=0.5;entryY=0;entryDx=0;entryDy=0;" parent="1" source="9VX4RvUI_FH1-eWX6P1F-81" target="9VX4RvUI_FH1-eWX6P1F-121" edge="1">
          <mxGeometry width="50" height="50" relative="1" as="geometry">
            <mxPoint x="550" y="500" as="sourcePoint" />
            <mxPoint x="465" y="490" as="targetPoint" />
          </mxGeometry>
        </mxCell>
        <mxCell id="9VX4RvUI_FH1-eWX6P1F-85" value="cage" style="whiteSpace=wrap;html=1;align=center;fillColor=#b1ddf0;strokeColor=#10739e;" parent="1" vertex="1">
          <mxGeometry x="520" y="760" width="120" height="60" as="geometry" />
        </mxCell>
        <mxCell id="9VX4RvUI_FH1-eWX6P1F-88" value="" style="endArrow=none;html=1;rounded=0;entryX=1;entryY=0.5;entryDx=0;entryDy=0;exitX=0;exitY=1;exitDx=0;exitDy=0;strokeColor=#82b366;fontColor=#00FF00;fillColor=#d5e8d4;" parent="1" source="9VX4RvUI_FH1-eWX6P1F-8" target="9VX4RvUI_FH1-eWX6P1F-16" edge="1">
          <mxGeometry relative="1" as="geometry">
            <mxPoint x="1170" y="736" as="sourcePoint" />
            <mxPoint x="1085" y="723" as="targetPoint" />
          </mxGeometry>
        </mxCell>
        <mxCell id="9VX4RvUI_FH1-eWX6P1F-89" value="ko_wins" style="ellipse;whiteSpace=wrap;html=1;align=center;fillColor=#d0cee2;strokeColor=#56517e;" parent="1" vertex="1">
          <mxGeometry x="640" y="185" width="80" height="30" as="geometry" />
        </mxCell>
        <mxCell id="9VX4RvUI_FH1-eWX6P1F-90" value="" style="endArrow=none;html=1;rounded=0;entryX=0;entryY=1;entryDx=0;entryDy=0;exitX=1;exitY=0.25;exitDx=0;exitDy=0;" parent="1" source="9VX4RvUI_FH1-eWX6P1F-6" target="9VX4RvUI_FH1-eWX6P1F-89" edge="1">
          <mxGeometry width="50" height="50" relative="1" as="geometry">
            <mxPoint x="710" y="290" as="sourcePoint" />
            <mxPoint x="500" y="350" as="targetPoint" />
          </mxGeometry>
        </mxCell>
        <mxCell id="9VX4RvUI_FH1-eWX6P1F-91" value="" style="endArrow=none;html=1;rounded=0;exitX=1;exitY=0;exitDx=0;exitDy=0;entryX=0;entryY=0.5;entryDx=0;entryDy=0;" parent="1" source="9VX4RvUI_FH1-eWX6P1F-8" target="bmsKPPKgogqOQ1_oIMIK-13" edge="1">
          <mxGeometry width="50" height="50" relative="1" as="geometry">
            <mxPoint x="1430" y="383" as="sourcePoint" />
            <mxPoint x="1144.9999999999998" y="250" as="targetPoint" />
          </mxGeometry>
        </mxCell>
        <mxCell id="9VX4RvUI_FH1-eWX6P1F-92" value="commentated by" style="shape=rhombus;perimeter=rhombusPerimeter;whiteSpace=wrap;html=1;align=center;rotation=-15;strokeColor=#82b366;fillColor=#d5e8d4;" parent="1" vertex="1">
          <mxGeometry x="1080" y="594" width="120" height="66" as="geometry" />
        </mxCell>
        <mxCell id="9VX4RvUI_FH1-eWX6P1F-93" value="" style="shape=link;html=1;rounded=0;exitX=0;exitY=0.5;exitDx=0;exitDy=0;strokeColor=#82b366;fontColor=#00FF00;entryX=1;entryY=0;entryDx=0;entryDy=0;fillColor=#d5e8d4;" parent="1" source="9VX4RvUI_FH1-eWX6P1F-92" target="9VX4RvUI_FH1-eWX6P1F-5" edge="1">
          <mxGeometry relative="1" as="geometry">
            <mxPoint x="1151" y="381" as="sourcePoint" />
            <mxPoint x="1035" y="640" as="targetPoint" />
          </mxGeometry>
        </mxCell>
        <mxCell id="9VX4RvUI_FH1-eWX6P1F-94" value="N" style="resizable=0;html=1;whiteSpace=wrap;align=right;verticalAlign=bottom;fontColor=#00FF00;" parent="9VX4RvUI_FH1-eWX6P1F-93" connectable="0" vertex="1">
          <mxGeometry x="1" relative="1" as="geometry">
            <mxPoint x="30" y="-10" as="offset" />
          </mxGeometry>
        </mxCell>
        <mxCell id="9VX4RvUI_FH1-eWX6P1F-95" value="" style="endArrow=none;html=1;rounded=0;entryX=1;entryY=0.5;entryDx=0;entryDy=0;strokeColor=#82b366;fontColor=#00FF00;fillColor=#d5e8d4;exitX=0;exitY=0.5;exitDx=0;exitDy=0;" parent="1" source="9VX4RvUI_FH1-eWX6P1F-97" target="9VX4RvUI_FH1-eWX6P1F-92" edge="1">
          <mxGeometry relative="1" as="geometry">
            <mxPoint x="1305" y="560" as="sourcePoint" />
            <mxPoint x="1025" y="230" as="targetPoint" />
          </mxGeometry>
        </mxCell>
        <mxCell id="9VX4RvUI_FH1-eWX6P1F-96" value="N" style="resizable=0;html=1;whiteSpace=wrap;align=right;verticalAlign=bottom;fontColor=#00FF00;" parent="1" connectable="0" vertex="1">
          <mxGeometry x="1229.9957883452348" y="600.0028419736107" as="geometry">
            <mxPoint x="-1" y="-1" as="offset" />
          </mxGeometry>
        </mxCell>
        <mxCell id="9VX4RvUI_FH1-eWX6P1F-97" value="commentator" style="whiteSpace=wrap;html=1;align=center;fillColor=#b1ddf0;strokeColor=#10739e;" parent="1" vertex="1">
          <mxGeometry x="1260" y="569.54" width="90" height="40" as="geometry" />
        </mxCell>
        <mxCell id="9VX4RvUI_FH1-eWX6P1F-98" value="1" style="resizable=0;html=1;whiteSpace=wrap;align=right;verticalAlign=bottom;fontColor=#00FF00;" parent="1" connectable="0" vertex="1">
          <mxGeometry x="990.0015564671503" y="325.0023618656936" as="geometry" />
        </mxCell>
        <mxCell id="9VX4RvUI_FH1-eWX6P1F-99" value="commentator_id" style="ellipse;whiteSpace=wrap;html=1;align=center;fontStyle=4;fillColor=#d0cee2;strokeColor=#56517e;" parent="1" vertex="1">
          <mxGeometry x="1228" y="501.5" width="100" height="40" as="geometry" />
        </mxCell>
        <mxCell id="9VX4RvUI_FH1-eWX6P1F-100" value="" style="endArrow=none;html=1;rounded=0;entryX=0.5;entryY=0;entryDx=0;entryDy=0;exitX=0.5;exitY=1;exitDx=0;exitDy=0;" parent="1" source="9VX4RvUI_FH1-eWX6P1F-99" target="9VX4RvUI_FH1-eWX6P1F-97" edge="1">
          <mxGeometry width="50" height="50" relative="1" as="geometry">
            <mxPoint x="1308" y="458.5" as="sourcePoint" />
            <mxPoint x="1382" y="487.5" as="targetPoint" />
          </mxGeometry>
        </mxCell>
        <mxCell id="9VX4RvUI_FH1-eWX6P1F-101" value="" style="endArrow=none;html=1;rounded=0;entryX=1;entryY=0;entryDx=0;entryDy=0;exitX=0;exitY=1;exitDx=0;exitDy=0;" parent="1" source="9VX4RvUI_FH1-eWX6P1F-102" target="9VX4RvUI_FH1-eWX6P1F-97" edge="1">
          <mxGeometry width="50" height="50" relative="1" as="geometry">
            <mxPoint x="1430" y="551.5" as="sourcePoint" />
            <mxPoint x="1457" y="580" as="targetPoint" />
          </mxGeometry>
        </mxCell>
        <mxCell id="9VX4RvUI_FH1-eWX6P1F-102" value="commentator_name" style="ellipse;whiteSpace=wrap;html=1;align=center;fillColor=#d0cee2;strokeColor=#56517e;" parent="1" vertex="1">
          <mxGeometry x="1390" y="507" width="130" height="40" as="geometry" />
        </mxCell>
        <mxCell id="9VX4RvUI_FH1-eWX6P1F-103" value="" style="endArrow=none;html=1;rounded=0;entryX=1;entryY=1;entryDx=0;entryDy=0;exitX=0;exitY=0.5;exitDx=0;exitDy=0;" parent="1" source="9VX4RvUI_FH1-eWX6P1F-104" target="9VX4RvUI_FH1-eWX6P1F-97" edge="1">
          <mxGeometry width="50" height="50" relative="1" as="geometry">
            <mxPoint x="1430" y="644.5" as="sourcePoint" />
            <mxPoint x="1350" y="663" as="targetPoint" />
          </mxGeometry>
        </mxCell>
        <mxCell id="9VX4RvUI_FH1-eWX6P1F-104" value="year_joined" style="ellipse;whiteSpace=wrap;html=1;align=center;fillColor=#d0cee2;strokeColor=#56517e;" parent="1" vertex="1">
          <mxGeometry x="1390" y="600" width="90" height="40" as="geometry" />
        </mxCell>
        <mxCell id="9VX4RvUI_FH1-eWX6P1F-105" value="" style="endArrow=none;html=1;rounded=0;entryX=0.5;entryY=1;entryDx=0;entryDy=0;exitX=0;exitY=0;exitDx=0;exitDy=0;" parent="1" source="9VX4RvUI_FH1-eWX6P1F-106" target="9VX4RvUI_FH1-eWX6P1F-97" edge="1">
          <mxGeometry width="50" height="50" relative="1" as="geometry">
            <mxPoint x="1510" y="890" as="sourcePoint" />
            <mxPoint x="1415" y="720" as="targetPoint" />
          </mxGeometry>
        </mxCell>
        <mxCell id="9VX4RvUI_FH1-eWX6P1F-106" value="total_events_commd" style="ellipse;whiteSpace=wrap;html=1;align=center;dashed=1;fillColor=#d0cee2;strokeColor=#56517e;" parent="1" vertex="1">
          <mxGeometry x="1260" y="640" width="130" height="40" as="geometry" />
        </mxCell>
        <mxCell id="9VX4RvUI_FH1-eWX6P1F-107" value="total_events_spnsred" style="ellipse;whiteSpace=wrap;html=1;align=center;dashed=1;fillColor=#d0cee2;strokeColor=#56517e;" parent="1" vertex="1">
          <mxGeometry x="1145" y="820" width="135" height="40" as="geometry" />
        </mxCell>
        <mxCell id="9VX4RvUI_FH1-eWX6P1F-108" value="" style="endArrow=none;html=1;rounded=0;exitX=0.5;exitY=0;exitDx=0;exitDy=0;entryX=0.5;entryY=1;entryDx=0;entryDy=0;" parent="1" source="9VX4RvUI_FH1-eWX6P1F-107" target="9VX4RvUI_FH1-eWX6P1F-7" edge="1">
          <mxGeometry width="50" height="50" relative="1" as="geometry">
            <mxPoint x="840" y="820" as="sourcePoint" />
            <mxPoint x="1190" y="780" as="targetPoint" />
          </mxGeometry>
        </mxCell>
        <mxCell id="9VX4RvUI_FH1-eWX6P1F-109" value="" style="endArrow=none;html=1;rounded=0;entryX=1;entryY=0.5;entryDx=0;entryDy=0;exitX=0;exitY=0.5;exitDx=0;exitDy=0;strokeColor=#82b366;fontColor=#00FF00;fillColor=#d5e8d4;" parent="1" source="9VX4RvUI_FH1-eWX6P1F-10" target="9VX4RvUI_FH1-eWX6P1F-5" edge="1">
          <mxGeometry relative="1" as="geometry">
            <mxPoint x="1150" y="730" as="sourcePoint" />
            <mxPoint x="1085" y="723" as="targetPoint" />
          </mxGeometry>
        </mxCell>
        <mxCell id="9VX4RvUI_FH1-eWX6P1F-110" value="N" style="resizable=0;html=1;whiteSpace=wrap;align=right;verticalAlign=bottom;fontColor=#00FF00;" parent="1" connectable="0" vertex="1">
          <mxGeometry x="955.0019646619558" y="740.0006379447578" as="geometry" />
        </mxCell>
        <mxCell id="9VX4RvUI_FH1-eWX6P1F-111" value="bets arranged" style="shape=rhombus;double=1;perimeter=rhombusPerimeter;whiteSpace=wrap;html=1;align=center;fillColor=#d5e8d4;strokeColor=#82b366;" parent="1" vertex="1">
          <mxGeometry x="590" y="497" width="110" height="60" as="geometry" />
        </mxCell>
        <mxCell id="9VX4RvUI_FH1-eWX6P1F-113" value="location" style="ellipse;whiteSpace=wrap;html=1;align=center;fillColor=#d0cee2;strokeColor=#56517e;" parent="1" vertex="1">
          <mxGeometry x="370" y="729.54" width="120" height="40" as="geometry" />
        </mxCell>
        <mxCell id="9VX4RvUI_FH1-eWX6P1F-114" value="" style="endArrow=none;html=1;rounded=0;exitX=1;exitY=0.5;exitDx=0;exitDy=0;entryX=0;entryY=0;entryDx=0;entryDy=0;" parent="1" source="9VX4RvUI_FH1-eWX6P1F-115" target="9VX4RvUI_FH1-eWX6P1F-113" edge="1">
          <mxGeometry width="50" height="50" relative="1" as="geometry">
            <mxPoint x="350" y="745" as="sourcePoint" />
            <mxPoint x="380" y="765" as="targetPoint" />
          </mxGeometry>
        </mxCell>
        <mxCell id="9VX4RvUI_FH1-eWX6P1F-115" value="country" style="ellipse;whiteSpace=wrap;html=1;align=center;fillColor=#d0cee2;strokeColor=#56517e;" parent="1" vertex="1">
          <mxGeometry x="290" y="706" width="60" height="40" as="geometry" />
        </mxCell>
        <mxCell id="9VX4RvUI_FH1-eWX6P1F-116" value="" style="endArrow=none;html=1;rounded=0;exitX=1;exitY=0.5;exitDx=0;exitDy=0;entryX=0;entryY=1;entryDx=0;entryDy=0;" parent="1" source="9VX4RvUI_FH1-eWX6P1F-117" target="9VX4RvUI_FH1-eWX6P1F-113" edge="1">
          <mxGeometry width="50" height="50" relative="1" as="geometry">
            <mxPoint x="340" y="820" as="sourcePoint" />
            <mxPoint x="370" y="840" as="targetPoint" />
          </mxGeometry>
        </mxCell>
        <mxCell id="9VX4RvUI_FH1-eWX6P1F-117" value="city" style="ellipse;whiteSpace=wrap;html=1;align=center;fillColor=#d0cee2;strokeColor=#56517e;" parent="1" vertex="1">
          <mxGeometry x="285" y="760" width="70" height="34" as="geometry" />
        </mxCell>
        <mxCell id="9VX4RvUI_FH1-eWX6P1F-118" value="" style="endArrow=none;html=1;rounded=0;exitX=1;exitY=0;exitDx=0;exitDy=0;entryX=0;entryY=0.75;entryDx=0;entryDy=0;" parent="1" source="9VX4RvUI_FH1-eWX6P1F-119" target="9VX4RvUI_FH1-eWX6P1F-85" edge="1">
          <mxGeometry width="50" height="50" relative="1" as="geometry">
            <mxPoint x="350" y="910" as="sourcePoint" />
            <mxPoint x="380" y="930" as="targetPoint" />
          </mxGeometry>
        </mxCell>
        <mxCell id="9VX4RvUI_FH1-eWX6P1F-119" value="capacity" style="ellipse;whiteSpace=wrap;html=1;align=center;fillColor=#d0cee2;strokeColor=#56517e;" parent="1" vertex="1">
          <mxGeometry x="340" y="820" width="120" height="40" as="geometry" />
        </mxCell>
        <mxCell id="9VX4RvUI_FH1-eWX6P1F-120" value="cage _id" style="ellipse;whiteSpace=wrap;html=1;align=center;fontStyle=4;fillColor=#d0cee2;strokeColor=#56517e;" parent="1" vertex="1">
          <mxGeometry x="595" y="840" width="100" height="40" as="geometry" />
        </mxCell>
        <mxCell id="9VX4RvUI_FH1-eWX6P1F-121" value="bet" style="shape=ext;margin=3;double=1;whiteSpace=wrap;html=1;align=center;fillColor=#b1ddf0;strokeColor=#10739e;" parent="1" vertex="1">
          <mxGeometry x="400" y="481.5" width="120" height="60" as="geometry" />
        </mxCell>
        <mxCell id="9VX4RvUI_FH1-eWX6P1F-122" value="octagon_girls" style="whiteSpace=wrap;html=1;align=center;fillColor=#B1DDF0;" parent="1" vertex="1">
          <mxGeometry x="1190" y="380" width="100" height="40" as="geometry" />
        </mxCell>
        <mxCell id="9VX4RvUI_FH1-eWX6P1F-127" value="attends" style="shape=rhombus;perimeter=rhombusPerimeter;whiteSpace=wrap;html=1;align=center;rotation=-20;strokeColor=#82B366;gradientColor=none;fillColor=#D5E8D4;" parent="1" vertex="1">
          <mxGeometry x="1000" y="430" width="120" height="60" as="geometry" />
        </mxCell>
        <mxCell id="9VX4RvUI_FH1-eWX6P1F-129" value="" style="endArrow=none;html=1;rounded=0;entryX=0;entryY=0.5;entryDx=0;entryDy=0;exitX=1;exitY=0.5;exitDx=0;exitDy=0;strokeColor=#82B366;" parent="1" source="9VX4RvUI_FH1-eWX6P1F-127" target="9VX4RvUI_FH1-eWX6P1F-122" edge="1">
          <mxGeometry relative="1" as="geometry">
            <mxPoint x="920" y="430" as="sourcePoint" />
            <mxPoint x="1230" y="420" as="targetPoint" />
          </mxGeometry>
        </mxCell>
        <mxCell id="9VX4RvUI_FH1-eWX6P1F-130" value="&lt;span style=&quot;color: rgb(0, 255, 0);&quot;&gt;M&lt;/span&gt;" style="edgeLabel;html=1;align=center;verticalAlign=middle;resizable=0;points=[];fontColor=#82B366;" parent="9VX4RvUI_FH1-eWX6P1F-129" vertex="1" connectable="0">
          <mxGeometry x="-0.331" y="1" relative="1" as="geometry">
            <mxPoint x="27" y="-22" as="offset" />
          </mxGeometry>
        </mxCell>
        <mxCell id="9VX4RvUI_FH1-eWX6P1F-131" value="&lt;span style=&quot;color: rgb(0, 255, 0);&quot;&gt;N&lt;/span&gt;" style="text;html=1;align=center;verticalAlign=middle;resizable=0;points=[];autosize=1;strokeColor=none;fillColor=none;" parent="1" vertex="1">
          <mxGeometry x="935" y="471.5" width="30" height="30" as="geometry" />
        </mxCell>
        <mxCell id="9VX4RvUI_FH1-eWX6P1F-132" value="name" style="ellipse;whiteSpace=wrap;html=1;align=center;fillColor=#D0CEE2;" parent="1" vertex="1">
          <mxGeometry x="1300" y="436" width="100" height="40" as="geometry" />
        </mxCell>
        <mxCell id="9VX4RvUI_FH1-eWX6P1F-134" value="age" style="ellipse;whiteSpace=wrap;html=1;align=center;fillColor=#D0CEE2;" parent="1" vertex="1">
          <mxGeometry x="1190" y="450" width="100" height="40" as="geometry" />
        </mxCell>
        <mxCell id="9VX4RvUI_FH1-eWX6P1F-135" value="girl_id" style="ellipse;whiteSpace=wrap;html=1;align=center;fontStyle=4;fillColor=#D0CEE2;" parent="1" vertex="1">
          <mxGeometry x="1180" y="323" width="100" height="40" as="geometry" />
        </mxCell>
        <mxCell id="9VX4RvUI_FH1-eWX6P1F-136" value="" style="endArrow=none;html=1;rounded=0;entryX=0.5;entryY=0;entryDx=0;entryDy=0;exitX=0.5;exitY=1;exitDx=0;exitDy=0;" parent="1" source="9VX4RvUI_FH1-eWX6P1F-135" target="9VX4RvUI_FH1-eWX6P1F-122" edge="1">
          <mxGeometry relative="1" as="geometry">
            <mxPoint x="1240" y="360" as="sourcePoint" />
            <mxPoint x="1210" y="480" as="targetPoint" />
          </mxGeometry>
        </mxCell>
        <mxCell id="9VX4RvUI_FH1-eWX6P1F-137" value="" style="endArrow=none;html=1;rounded=0;entryX=0.5;entryY=0;entryDx=0;entryDy=0;exitX=0.5;exitY=1;exitDx=0;exitDy=0;" parent="1" source="9VX4RvUI_FH1-eWX6P1F-122" target="9VX4RvUI_FH1-eWX6P1F-134" edge="1">
          <mxGeometry relative="1" as="geometry">
            <mxPoint x="1050" y="480" as="sourcePoint" />
            <mxPoint x="1210" y="480" as="targetPoint" />
          </mxGeometry>
        </mxCell>
        <mxCell id="9VX4RvUI_FH1-eWX6P1F-138" value="" style="endArrow=none;html=1;rounded=0;entryX=0.083;entryY=0.188;entryDx=0;entryDy=0;exitX=1;exitY=0.5;exitDx=0;exitDy=0;entryPerimeter=0;" parent="1" source="9VX4RvUI_FH1-eWX6P1F-122" target="9VX4RvUI_FH1-eWX6P1F-132" edge="1">
          <mxGeometry relative="1" as="geometry">
            <mxPoint x="1050" y="480" as="sourcePoint" />
            <mxPoint x="1210" y="480" as="targetPoint" />
          </mxGeometry>
        </mxCell>
        <mxCell id="9VX4RvUI_FH1-eWX6P1F-139" value="fight_id" style="ellipse;whiteSpace=wrap;html=1;align=center;fillColor=#D0CEE2;" parent="1" vertex="1">
          <mxGeometry x="1350" y="340" width="100" height="40" as="geometry" />
        </mxCell>
        <mxCell id="9VX4RvUI_FH1-eWX6P1F-140" value="nationality" style="ellipse;whiteSpace=wrap;html=1;align=center;fillColor=#D0CEE2;" parent="1" vertex="1">
          <mxGeometry x="1280" y="305" width="100" height="40" as="geometry" />
        </mxCell>
        <mxCell id="9VX4RvUI_FH1-eWX6P1F-141" value="no_events_attended" style="ellipse;whiteSpace=wrap;html=1;align=center;fillColor=#D0CEE2;" parent="1" vertex="1">
          <mxGeometry x="1360" y="390" width="130" height="40" as="geometry" />
        </mxCell>
        <mxCell id="9VX4RvUI_FH1-eWX6P1F-142" value="" style="endArrow=none;html=1;rounded=0;entryX=0;entryY=0.5;entryDx=0;entryDy=0;exitX=1;exitY=0;exitDx=0;exitDy=0;" parent="1" source="9VX4RvUI_FH1-eWX6P1F-122" target="9VX4RvUI_FH1-eWX6P1F-139" edge="1">
          <mxGeometry relative="1" as="geometry">
            <mxPoint x="1190" y="250" as="sourcePoint" />
            <mxPoint x="1350" y="250" as="targetPoint" />
          </mxGeometry>
        </mxCell>
        <mxCell id="9VX4RvUI_FH1-eWX6P1F-145" value="" style="endArrow=none;html=1;rounded=0;entryX=0.234;entryY=0.949;entryDx=0;entryDy=0;entryPerimeter=0;exitX=0.75;exitY=0;exitDx=0;exitDy=0;" parent="1" source="9VX4RvUI_FH1-eWX6P1F-122" target="9VX4RvUI_FH1-eWX6P1F-140" edge="1">
          <mxGeometry relative="1" as="geometry">
            <mxPoint x="1060" y="310" as="sourcePoint" />
            <mxPoint x="1220" y="310" as="targetPoint" />
          </mxGeometry>
        </mxCell>
        <mxCell id="9VX4RvUI_FH1-eWX6P1F-146" value="" style="endArrow=none;html=1;rounded=0;entryX=0;entryY=0.5;entryDx=0;entryDy=0;exitX=0.989;exitY=0.384;exitDx=0;exitDy=0;exitPerimeter=0;" parent="1" source="9VX4RvUI_FH1-eWX6P1F-122" target="9VX4RvUI_FH1-eWX6P1F-141" edge="1">
          <mxGeometry relative="1" as="geometry">
            <mxPoint x="1060" y="310" as="sourcePoint" />
            <mxPoint x="1220" y="310" as="targetPoint" />
          </mxGeometry>
        </mxCell>
        <mxCell id="9VX4RvUI_FH1-eWX6P1F-151" value="" style="endArrow=none;html=1;rounded=0;entryX=1;entryY=0.5;entryDx=0;entryDy=0;exitX=0.48;exitY=0.167;exitDx=0;exitDy=0;strokeColor=#82B366;exitPerimeter=0;" parent="1" source="9VX4RvUI_FH1-eWX6P1F-156" target="bmsKPPKgogqOQ1_oIMIK-5" edge="1">
          <mxGeometry relative="1" as="geometry">
            <mxPoint x="720" y="440" as="sourcePoint" />
            <mxPoint x="880" y="420" as="targetPoint" />
          </mxGeometry>
        </mxCell>
        <mxCell id="9VX4RvUI_FH1-eWX6P1F-158" value="" style="endArrow=none;html=1;rounded=0;exitX=1;exitY=0.5;exitDx=0;exitDy=0;entryX=0;entryY=0.5;entryDx=0;entryDy=0;strokeColor=#82B366;" parent="1" source="9VX4RvUI_FH1-eWX6P1F-169" target="bmsKPPKgogqOQ1_oIMIK-5" edge="1">
          <mxGeometry relative="1" as="geometry">
            <mxPoint x="820" y="410" as="sourcePoint" />
            <mxPoint x="670" y="250" as="targetPoint" />
          </mxGeometry>
        </mxCell>
        <mxCell id="9VX4RvUI_FH1-eWX6P1F-165" value="injuries" style="ellipse;whiteSpace=wrap;html=1;align=center;fillColor=#D0CEE2;" parent="1" vertex="1">
          <mxGeometry x="850" y="250" width="100" height="40" as="geometry" />
        </mxCell>
        <mxCell id="9VX4RvUI_FH1-eWX6P1F-167" value="" style="endArrow=none;html=1;rounded=0;entryX=0;entryY=0;entryDx=0;entryDy=0;exitX=0;exitY=1;exitDx=0;exitDy=0;" parent="1" source="bmsKPPKgogqOQ1_oIMIK-8" target="bmsKPPKgogqOQ1_oIMIK-5" edge="1">
          <mxGeometry relative="1" as="geometry">
            <mxPoint x="800" y="220" as="sourcePoint" />
            <mxPoint x="830" y="230" as="targetPoint" />
          </mxGeometry>
        </mxCell>
        <mxCell id="9VX4RvUI_FH1-eWX6P1F-168" value="" style="endArrow=none;html=1;rounded=0;entryX=0;entryY=1;entryDx=0;entryDy=0;exitX=1;exitY=0;exitDx=0;exitDy=0;" parent="1" source="bmsKPPKgogqOQ1_oIMIK-5" target="9VX4RvUI_FH1-eWX6P1F-165" edge="1">
          <mxGeometry relative="1" as="geometry">
            <mxPoint x="862" y="231" as="sourcePoint" />
            <mxPoint x="980" y="240" as="targetPoint" />
          </mxGeometry>
        </mxCell>
        <mxCell id="bmsKPPKgogqOQ1_oIMIK-1" value="audience_feedback" style="ellipse;shape=doubleEllipse;margin=3;whiteSpace=wrap;html=1;align=center;fillColor=#D0CEE2;strokeColor=#000000;" vertex="1" parent="1">
          <mxGeometry x="875" y="800" width="135" height="50" as="geometry" />
        </mxCell>
        <mxCell id="bmsKPPKgogqOQ1_oIMIK-2" value="" style="endArrow=none;html=1;rounded=0;exitX=0.5;exitY=0;exitDx=0;exitDy=0;entryX=0.75;entryY=1;entryDx=0;entryDy=0;" edge="1" parent="1" source="bmsKPPKgogqOQ1_oIMIK-1" target="9VX4RvUI_FH1-eWX6P1F-5">
          <mxGeometry width="50" height="50" relative="1" as="geometry">
            <mxPoint x="780" y="800" as="sourcePoint" />
            <mxPoint x="800" y="770" as="targetPoint" />
          </mxGeometry>
        </mxCell>
        <mxCell id="bmsKPPKgogqOQ1_oIMIK-3" value="" style="shape=link;html=1;rounded=0;strokeColor=#82b366;fontColor=#00FF00;exitX=1;exitY=0.5;exitDx=0;exitDy=0;fillColor=#d5e8d4;entryX=0;entryY=0.5;entryDx=0;entryDy=0;" edge="1" parent="1" source="9VX4RvUI_FH1-eWX6P1F-12" target="9VX4RvUI_FH1-eWX6P1F-127">
          <mxGeometry relative="1" as="geometry">
            <mxPoint x="910" y="500" as="sourcePoint" />
            <mxPoint x="990" y="460" as="targetPoint" />
          </mxGeometry>
        </mxCell>
        <mxCell id="bmsKPPKgogqOQ1_oIMIK-5" value="medical_report" style="shape=rhombus;perimeter=rhombusPerimeter;whiteSpace=wrap;html=1;align=center;strokeColor=#82B366;fillColor=#D5E8D4;rotation=30;" vertex="1" parent="1">
          <mxGeometry x="730" y="263" width="120" height="60" as="geometry" />
        </mxCell>
        <mxCell id="bmsKPPKgogqOQ1_oIMIK-6" value="" style="endArrow=none;html=1;rounded=0;exitX=1;exitY=0.5;exitDx=0;exitDy=0;entryX=0;entryY=0.5;entryDx=0;entryDy=0;strokeColor=#82B366;" edge="1" parent="1" source="9VX4RvUI_FH1-eWX6P1F-6" target="9VX4RvUI_FH1-eWX6P1F-169">
          <mxGeometry relative="1" as="geometry">
            <mxPoint x="630" y="235" as="sourcePoint" />
            <mxPoint x="738" y="263" as="targetPoint" />
          </mxGeometry>
        </mxCell>
        <mxCell id="9VX4RvUI_FH1-eWX6P1F-169" value="N" style="text;html=1;align=center;verticalAlign=middle;resizable=0;points=[];autosize=1;strokeColor=none;fillColor=none;fontColor=#00FF00;" parent="1" vertex="1">
          <mxGeometry x="660" y="225" width="30" height="30" as="geometry" />
        </mxCell>
        <mxCell id="bmsKPPKgogqOQ1_oIMIK-7" value="" style="endArrow=none;html=1;rounded=0;entryX=0.587;entryY=1.1;entryDx=0;entryDy=0;exitX=0.75;exitY=0;exitDx=0;exitDy=0;strokeColor=#82B366;entryPerimeter=0;" edge="1" parent="1" source="9VX4RvUI_FH1-eWX6P1F-12" target="9VX4RvUI_FH1-eWX6P1F-156">
          <mxGeometry relative="1" as="geometry">
            <mxPoint x="870" y="490" as="sourcePoint" />
            <mxPoint x="842" y="323" as="targetPoint" />
          </mxGeometry>
        </mxCell>
        <mxCell id="9VX4RvUI_FH1-eWX6P1F-156" value="N" style="text;html=1;align=center;verticalAlign=middle;resizable=0;points=[];autosize=1;strokeColor=none;fillColor=none;fontColor=#00FF00;rotation=0;" parent="1" vertex="1">
          <mxGeometry x="845" y="385" width="30" height="30" as="geometry" />
        </mxCell>
        <mxCell id="bmsKPPKgogqOQ1_oIMIK-8" value="recovery_time" style="ellipse;whiteSpace=wrap;html=1;align=center;fillColor=#D0CEE2;" vertex="1" parent="1">
          <mxGeometry x="780" y="185" width="100" height="40" as="geometry" />
        </mxCell>
        <mxCell id="bmsKPPKgogqOQ1_oIMIK-9" value="last&lt;span style=&quot;background-color: transparent; color: light-dark(rgb(0, 0, 0), rgb(255, 255, 255));&quot;&gt;_name&lt;/span&gt;" style="ellipse;whiteSpace=wrap;html=1;align=center;fillColor=#d0cee2;strokeColor=#56517e;" vertex="1" parent="1">
          <mxGeometry x="580" y="115" width="85" height="35" as="geometry" />
        </mxCell>
        <mxCell id="bmsKPPKgogqOQ1_oIMIK-10" value="" style="endArrow=none;html=1;rounded=0;entryX=0;entryY=1;entryDx=0;entryDy=0;exitX=0.5;exitY=0;exitDx=0;exitDy=0;" edge="1" parent="1" target="bmsKPPKgogqOQ1_oIMIK-9" source="9VX4RvUI_FH1-eWX6P1F-6">
          <mxGeometry width="50" height="50" relative="1" as="geometry">
            <mxPoint x="823" y="195" as="sourcePoint" />
            <mxPoint x="1150" y="315" as="targetPoint" />
          </mxGeometry>
        </mxCell>
        <mxCell id="bmsKPPKgogqOQ1_oIMIK-13" value="nationality" style="ellipse;whiteSpace=wrap;html=1;align=center;fillColor=#d0cee2;strokeColor=#56517e;" vertex="1" parent="1">
          <mxGeometry x="1145" y="230" width="100" height="40" as="geometry" />
        </mxCell>
        <mxCell id="bmsKPPKgogqOQ1_oIMIK-14" value="first&lt;span style=&quot;background-color: transparent; color: light-dark(rgb(0, 0, 0), rgb(255, 255, 255));&quot;&gt;_name&lt;/span&gt;" style="ellipse;whiteSpace=wrap;html=1;align=center;fillColor=#d0cee2;strokeColor=#56517e;" vertex="1" parent="1">
          <mxGeometry x="975" y="185" width="100" height="40" as="geometry" />
        </mxCell>
        <mxCell id="bmsKPPKgogqOQ1_oIMIK-15" value="" style="endArrow=none;html=1;rounded=0;exitX=0.25;exitY=0;exitDx=0;exitDy=0;entryX=0.5;entryY=1;entryDx=0;entryDy=0;" edge="1" parent="1" source="9VX4RvUI_FH1-eWX6P1F-8" target="bmsKPPKgogqOQ1_oIMIK-14">
          <mxGeometry width="50" height="50" relative="1" as="geometry">
            <mxPoint x="1125" y="273" as="sourcePoint" />
            <mxPoint x="1155" y="260" as="targetPoint" />
          </mxGeometry>
        </mxCell>
      </root>
    </mxGraphModel>
  </diagram>
</mxfile>
